<svg width="359" height="359" viewBox="0 0 359 359" fill="none" xmlns="http://www.w3.org/2000/svg">
<rect width="359" height="359" fill="#EB80E0"/>
<path d="M103.5 132C103.5 121.52 112.02 113 122.5 113H236.5C246.98 113 255.5 121.52 255.5 132V227C255.5 237.48 246.98 246 236.5 246H122.5C112.02 246 103.5 237.48 103.5 227V132ZM199.628 163.617C198.292 161.658 196.095 160.5 193.75 160.5C191.405 160.5 189.178 161.658 187.872 163.617L162.044 201.498L154.177 191.672C152.811 189.98 150.762 189 148.625 189C146.488 189 144.409 189.98 143.073 191.672L124.073 215.422C122.352 217.559 122.025 220.498 123.213 222.962C124.4 225.427 126.894 227 129.625 227H158.125H167.625H229.375C232.017 227 234.452 225.545 235.669 223.2C236.886 220.855 236.737 218.034 235.253 215.867L199.628 163.617ZM136.75 160.5C140.529 160.5 144.154 158.999 146.826 156.326C149.499 153.654 151 150.029 151 146.25C151 142.471 149.499 138.846 146.826 136.174C144.154 133.501 140.529 132 136.75 132C132.971 132 129.346 133.501 126.674 136.174C124.001 138.846 122.5 142.471 122.5 146.25C122.5 150.029 124.001 153.654 126.674 156.326C129.346 158.999 132.971 160.5 136.75 160.5Z" fill="#fdd8f9"/>
</svg>
